<?xml version="1.0" encoding="utf-8"?>
<!-- Generator: Adobe Illustrator 24.3.0, SVG Export Plug-In . SVG Version: 6.00 Build 0)  -->
<svg version="1.1" id="Capa_1" xmlns="http://www.w3.org/2000/svg" xmlns:xlink="http://www.w3.org/1999/xlink" x="0px" y="0px"
	 viewBox="0 0 230.2 164.5" style="enable-background:new 0 0 230.2 164.5;" xml:space="preserve">
<g>
	<path d="M230,16.9c0-0.3,0.2-0.5,0.2-0.8L160,83.8l70.2,65.5c0-0.5-0.1-0.9-0.1-1.4L230,16.9L230,16.9z"/>
	<path d="M149.2,94.2l-28.7,27.6c-1.5,1.4-3.3,2.1-5.2,2.1c-1.8,0-3.7-0.7-5.1-2L81.6,95.3l-70.6,68c1.7,0.6,3.6,1.1,5.5,1.1h197.7
		c2.9,0,5.6-0.9,7.9-2.2L149.2,94.2z"/>
	<path d="M115.3,106.1L222.4,2.8c-2.4-1.4-5.3-2.4-8.3-2.4H16.5c-3.9,0-7.6,1.5-10.4,3.9L115.3,106.1z"/>
	<path d="M0,19.4v128.5c0,1.5,0.3,2.9,0.7,4.3L70.4,85L0,19.4z"/>
</g>
</svg>
