<?xml version="1.0" encoding="utf-8"?>
<!-- Generator: Adobe Illustrator 24.3.0, SVG Export Plug-In . SVG Version: 6.00 Build 0)  -->
<svg version="1.1" id="Camada_1" xmlns="http://www.w3.org/2000/svg" xmlns:xlink="http://www.w3.org/1999/xlink" x="0px" y="0px"
	 viewBox="0 0 514 515" style="enable-background:new 0 0 514 515;" xml:space="preserve">
<style type="text/css">
	.st0{fill:#FFFFFF;}
</style>
<path d="M510.5,153.2c-1.2-27.2-5.6-45.8-11.9-62c-6.5-17.2-16.5-32.5-29.5-45.3c-12.8-13-28.3-23.1-45.2-29.4
	c-16.3-6.3-34.8-10.7-62-11.9C334.5,3.3,325.9,3,256.5,3s-78.1,0.3-105.3,1.5s-45.8,5.6-62,11.9C72,22.9,56.6,32.8,43.8,45.9
	c-13,12.8-23.1,28.3-29.4,45.2c-6.3,16.3-10.7,34.8-11.9,62c-1.3,27.4-1.6,36-1.6,105.4s0.3,78.1,1.5,105.3
	c1.2,27.2,5.6,45.8,11.9,62c6.5,17.2,16.6,32.5,29.5,45.3c12.8,13,28.3,23.1,45.2,29.4c16.3,6.3,34.8,10.7,62,11.9
	s35.9,1.5,105.3,1.5s78.1-0.3,105.3-1.5c27.2-1.2,45.8-5.6,62-11.9c34.3-13.3,61.5-40.4,74.8-74.8c6.3-16.3,10.7-34.8,11.9-62
	c1.2-27.3,1.5-35.9,1.5-105.3S511.7,180.5,510.5,153.2z"/>
<path class="st0" d="M256.4,127.3c-72.5,0-131.3,58.8-131.3,131.3S184,389.8,256.4,389.8c72.5,0,131.3-58.8,131.3-131.3
	S328.9,127.3,256.4,127.3z M256.4,343.7c-47,0-85.2-38.1-85.2-85.2s38.1-85.2,85.2-85.2c47,0,85.2,38.1,85.2,85.2
	S303.5,343.7,256.4,343.7z"/>
<path class="st0" d="M432.7,109.1c0,16.9-13.7,30.6-30.6,30.6s-30.6-13.7-30.6-30.6s13.7-30.6,30.6-30.6
	C419,78.4,432.7,92.1,432.7,109.1z"/>
</svg>
